# File created by Blade
# Date/Time:  Fri Jan 16 17:52:57 2015
#---------------------------------------------------------
:version 1.10
:name HOM
:units
  mass 1.0
  length 1.000000
  angle deg
:documentation
     Acclaim Skeleton File
:root
   axis xyz
   order TX TY TZ RX RY RZ
   position 0.000000 0.000000 0.000000
   orientation 0 0 0
:bonedata
   begin
      id 1
      name Spine_dum
      direction 0.000000 1.000000 0.000000
      length 7.170412
      axis 0.0 0.0 0.0 xyz
   end
   begin
      id 2
      name LeftUpLeg_dum
      direction 1.000000 0.000000 0.000000
      length 4.318350
      axis 0.0 0.0 0.0 xyz
   end
   begin
      id 3
      name RightUpLeg_dum
      direction -1.000000 0.000000 0.000000
      length 4.318350
      axis 0.0 0.0 0.0 xyz
   end
   begin
      id 4
      name Spine
      direction 0.000000 1.000000 0.000000
      length 0.000000
      axis 0.0 0.0 0.0 xyz
      dof rx ry rz
   end
   begin
      id 5
      name Spine_dum1
      direction 0.000000 1.000000 0.000000
      length 14.276153
      axis 0.0 0.0 0.0 xyz
   end
   begin
      id 6
      name Spine_dum2
      direction 0.000000 1.000000 0.000000
      length 10.718243
      axis 0.0 0.0 0.0 xyz
   end
   begin
      id 7
      name Spine_dum3
      direction 0.000000 1.000000 0.000000
      length 10.718243
      axis 0.0 0.0 0.0 xyz
   end
   begin
      id 8
      name Head
      direction 0.000000 1.000000 0.000000
      length 4.527550
      axis 0.0 0.0 0.0 xyz
      dof rx ry rz
   end
   begin
      id 9
      name LeftShoulder
      direction 1.000000 0.000000 0.000000
      length 7.058872
      axis 0.0 0.0 -90.0 xyz
      dof rx ry rz
   end
   begin
      id 10
      name LeftArm
      direction 1.000000 0.000000 0.000000
      length 10.955525
      axis 0.0 0.0 -90.0 xyz
      dof rx ry rz
   end
   begin
      id 11
      name LeftForeArm
      direction 1.000000 0.000000 0.000000
      length 8.193716
      axis 0.0 0.0 -90.0 xyz
      dof ry rz rx
   end
   begin
      id 12
      name LeftHand
      direction 0.000000 0.000000 0.000000
      length 0.000000
      axis 0.0 0.0 -90.0 xyz
      dof rx ry rz
   end
   begin
      id 13
      name LeftHand_dum1
      direction 0.000000 0.000000 0.000000
      length 0.000000
      axis 0.0 0.0 -90.0 xyz
   end
   begin
      id 14
      name LeftHand_dum2
      direction 1.000000 0.000000 0.000000
      length 3.937000
      axis 0.0 0.0 -90.0 xyz
   end
   begin
      id 15
      name LeftHandThumb1
      direction 0.000000 0.000000 1.000000
      length 3.937000
      axis 0.0 0.0 -90.0 xyz
      dof rx rz ry
   end
   begin
      id 16
      name RightShoulder
      direction -1.000000 0.000000 0.000000
      length 7.058872
      axis 0.0 0.0 90.0 xyz
      dof rx ry rz
   end
   begin
      id 17
      name RightArm
      direction -1.000000 0.000000 0.000000
      length 10.955525
      axis 0.0 0.0 90.0 xyz
      dof rx ry rz
   end
   begin
      id 18
      name RightForeArm
      direction -1.000000 0.000000 0.000000
      length 8.193716
      axis 0.0 0.0 90.0 xyz
      dof ry rz rx
   end
   begin
      id 19
      name RightHand
      direction 0.000000 0.000000 0.000000
      length 0.000000
      axis 0.0 0.0 90.0 xyz
      dof rx ry rz
   end
   begin
      id 20
      name RightHand_dum1
      direction 0.000000 0.000000 0.000000
      length 0.000000
      axis 0.0 0.0 90.0 xyz
   end
   begin
      id 21
      name RightHand_dum2
      direction -1.000000 0.000000 0.000000
      length 3.937000
      axis 0.0 0.0 90.0 xyz
   end
   begin
      id 22
      name RightHandThumb1
      direction 0.000000 0.000000 1.000000
      length 3.937000
      axis 0.0 0.0 90.0 xyz
      dof rx rz ry
   end
   begin
      id 23
      name LeftUpLeg
      direction 0.000000 -1.000000 0.000000
      length 17.323638
      axis 0.0 0.0 0.0 xyz
      dof rx ry rz
   end
   begin
      id 24
      name LeftLeg
      direction 0.000000 -1.000000 0.000000
      length 16.270368
      axis 0.0 0.0 0.0 xyz
      dof rx ry rz
   end
   begin
      id 25
      name LeftFoot
      direction 0.000000 -0.258819 0.965926
      length 4.922846
      axis 15.0 0.0 0.0 xyz
      dof rx ry rz
   end
   begin
      id 26
      name LeftToeBase
      direction 0.000000 0.000000 1.000000
      length 2.952750
      axis 0.0 0.0 0.0 xyz
      dof rx ry rz
   end
   begin
      id 27
      name RightUpLeg
      direction 0.000000 -1.000000 0.000000
      length 17.323638
      axis 0.0 0.0 0.0 xyz
      dof rx ry rz
   end
   begin
      id 28
      name RightLeg
      direction 0.000000 -1.000000 0.000000
      length 16.270368
      axis 0.0 0.0 0.0 xyz
      dof rx ry rz
   end
   begin
      id 29
      name RightFoot
      direction 0.000000 -0.258819 0.965926
      length 4.922846
      axis 15.0 0.0 0.0 xyz
      dof rx ry rz
   end
   begin
      id 30
      name RightToeBase
      direction 0.000000 0.000000 1.000000
      length 2.952750
      axis 0.0 0.0 0.0 xyz
      dof rx ry rz
   end
:hierarchy
   begin
      root Spine_dum LeftUpLeg_dum RightUpLeg_dum
      Spine_dum Spine
      LeftUpLeg_dum LeftUpLeg
      RightUpLeg_dum RightUpLeg
      Spine Spine_dum1 Spine_dum2 Spine_dum3
      Spine_dum1 Head
      Spine_dum2 LeftShoulder
      Spine_dum3 RightShoulder
      LeftShoulder LeftArm
      LeftArm LeftForeArm
      LeftForeArm LeftHand
      LeftHand LeftHand_dum1 LeftHand_dum2
      LeftHand_dum1 LeftHandThumb1
      RightShoulder RightArm
      RightArm RightForeArm
      RightForeArm RightHand
      RightHand RightHand_dum1 RightHand_dum2
      RightHand_dum1 RightHandThumb1
      LeftUpLeg LeftLeg
      LeftLeg LeftFoot
      LeftFoot LeftToeBase
      RightUpLeg RightLeg
      RightLeg RightFoot
      RightFoot RightToeBase
   end

# File created by Blade
# Date/Time:  Fri Jan 16 17:53:05 2015
# Frame Rate: 120.000 fps
#------------------------------------------------------
:FULLY-SPECIFIED
:DEGREES
290
root -7.408659 35.658893 -12.769829 -5.626558 -3.976776 -2.627099
Spine 10.830912 -1.390758 5.118967
Head 18.891640 8.703475 -6.320266
LeftShoulder -24.627177 15.224039 -9.229227
LeftArm 30.064140 -50.990221 -74.595027
LeftForeArm -11.590266 -0.000000 100.450323
LeftHand 2.454081 -0.000000 14.369871
LeftHandThumb1 -26.253704 0.000000 33.147579
RightShoulder -5.226365 -6.929564 -3.007078
RightArm 4.168258 -19.328655 74.186462
RightForeArm -18.593653 -0.000000 23.928754
RightHand -0.663221 -0.000000 -2.989296
RightHandThumb1 -24.326973 -0.000000 -32.862282
LeftUpLeg 6.087683 8.906140 1.850814
LeftLeg 3.605514 -0.000000 -0.000000
LeftFoot -22.068774 27.263728 -12.994445
LeftToeBase 15.679497 -0.000000 -0.000000
RightUpLeg 7.848781 -3.572815 5.681081
RightLeg -1.662480 -0.000000 0.000000
RightFoot -3.752477 -27.913839 1.986283
RightToeBase 10.572538 -0.000000 -0.000000
291
root -7.364549 35.648651 -12.757711 -5.663666 -4.007744 -2.769645
Spine 10.856242 -1.493487 5.305974
Head 18.672366 8.720474 -6.407978
LeftShoulder -24.655817 15.193165 -9.221069
LeftArm 30.197935 -51.018405 -74.852846
LeftForeArm -11.346818 -0.000000 101.096566
LeftHand 2.117721 -0.000000 14.097482
LeftHandThumb1 -26.253704 0.000000 33.147579
RightShoulder -5.199103 -6.913279 -3.036266
RightArm 4.269862 -19.505648 74.240087
RightForeArm -18.578379 0.000000 24.017231
RightHand -0.654804 -0.000000 -3.015544
RightHandThumb1 -24.326973 -0.000000 -32.862282
LeftUpLeg 6.269708 8.770590 1.858604
LeftLeg 3.387670 -0.000000 -0.000000
LeftFoot -21.525692 27.208767 -12.651028
LeftToeBase 15.833013 -0.000000 -0.000000
RightUpLeg 7.810925 -3.638571 5.740012
RightLeg -1.470303 -0.000000 0.000000
RightFoot -3.821557 -27.850698 1.949270
RightToeBase 10.880250 -0.000000 -0.000000
292
root -7.322869 35.637455 -12.745376 -5.726333 -4.008976 -2.930152
Spine 10.916606 -1.594692 5.486930
Head 18.471745 8.666842 -6.447398
LeftShoulder -24.637552 15.151698 -9.180345
LeftArm 30.227073 -51.011487 -74.995436
LeftForeArm -11.378556 -0.000000 101.710129
LeftHand 2.082817 -0.000000 13.701615
LeftHandThumb1 -26.253704 0.000000 33.147579
RightShoulder -5.194622 -6.887378 -3.027401
RightArm 4.356502 -19.740242 74.258512
RightForeArm -18.668977 -0.000000 24.107079
RightHand -0.589306 -0.000000 -3.388475
RightHandThumb1 -24.326973 -0.000000 -32.862282
LeftUpLeg 6.517261 8.702211 1.913674
LeftLeg 3.072261 -0.000000 -0.000000
LeftFoot -20.817304 27.143717 -12.216553
LeftToeBase 15.654316 -0.000000 -0.000000
RightUpLeg 7.861993 -3.551869 5.829120
RightLeg -1.395322 -0.000000 0.000000
RightFoot -3.882490 -27.897094 2.076428
RightToeBase 11.024692 -0.000000 -0.000000
293
root -7.273869 35.624489 -12.732458 -5.760618 -4.024131 -3.094389
Spine 10.940130 -1.728566 5.697367
Head 18.259322 8.713868 -6.516006
LeftShoulder -24.656718 15.081710 -9.167317
LeftArm 30.165760 -50.980113 -75.054222
LeftForeArm -11.651529 -0.000000 102.246511
LeftHand 1.845560 -0.000000 13.281349
LeftHandThumb1 -26.253704 0.000000 33.147579
RightShoulder -5.180844 -6.878595 -3.053767
RightArm 4.466814 -19.873256 74.308571
RightForeArm -18.650244 -0.000000 24.155185
RightHand -0.506994 -0.000000 -2.969337
RightHandThumb1 -24.326973 -0.000000 -32.862282
LeftUpLeg 6.754921 8.590112 1.953004
LeftLeg 2.699179 -0.000000 -0.000000
LeftFoot -19.926762 27.261541 -11.665908
LeftToeBase 15.488299 -0.000000 -0.000000
RightUpLeg 7.822008 -3.734630 5.889334
RightLeg -1.200904 -0.000000 0.000000
RightFoot -3.962085 -27.738590 2.029585
RightToeBase 11.203265 -0.000000 -0.000000
294
root -7.227389 35.609856 -12.719218 -5.804610 -4.029896 -3.289041
Spine 10.988249 -1.850394 5.908777
Head 18.026131 8.645272 -6.538007
LeftShoulder -24.659816 15.065326 -9.130579
LeftArm 30.117556 -50.872310 -75.157679
LeftForeArm -11.968288 0.000000 102.762451
LeftHand 1.573307 -0.000000 13.245542
LeftHandThumb1 -26.253704 0.000000 33.147579
RightShoulder -5.188666 -6.732410 -3.020846
RightArm 4.440099 -20.030744 74.322613
RightForeArm -18.597329 -0.000000 24.263364
RightHand -0.533906 -0.000000 -3.426350
RightHandThumb1 -24.326973 -0.000000 -32.862282
LeftUpLeg 6.980395 8.430443 2.033747
LeftLeg 2.378467 -0.000000 -0.000000
LeftFoot -18.983203 27.415901 -11.032473
LeftToeBase 15.422374 -0.000000 -0.000000
RightUpLeg 7.799590 -3.896915 5.982403
RightLeg -1.012391 -0.000000 0.000000
RightFoot -4.044271 -27.595684 2.030411
RightToeBase 11.323258 -0.000000 -0.000000
295
root -7.180375 35.593870 -12.703058 -5.864392 -4.040160 -3.502352
Spine 11.039897 -1.983401 6.146530
Head 17.821424 8.639347 -6.564695
LeftShoulder -24.693331 15.100155 -9.143295
LeftArm 30.042319 -50.687057 -75.185661
LeftForeArm -12.205448 0.000000 103.198607
LeftHand 1.356561 -0.000000 12.913145
LeftHandThumb1 -26.253704 0.000000 33.147579
RightShoulder -5.180360 -6.778272 -2.992456
RightArm 4.566782 -20.005846 74.322637
RightForeArm -18.692142 -0.000000 24.372295
RightHand -0.561286 -0.000000 -3.267004
RightHandThumb1 -24.326973 -0.000000 -32.862282
LeftUpLeg 7.255785 8.375739 2.161278
LeftLeg 1.959772 -0.000000 -0.000000
LeftFoot -18.245916 27.563075 -10.334932
LeftToeBase 15.537898 -0.000000 -0.000000
RightUpLeg 7.841360 -3.897744 6.102160
RightLeg -0.907698 -0.000000 0.000000
RightFoot -4.109369 -27.549849 2.113951
RightToeBase 11.398922 -0.000000 -0.000000
296
root -7.131217 35.578245 -12.688678 -5.915659 -4.075609 -3.713327
Spine 11.095069 -2.112932 6.371545
Head 17.612732 8.651822 -6.559955
LeftShoulder -24.732851 15.138502 -9.150129
LeftArm 29.962205 -50.487548 -75.327769
LeftForeArm -12.561465 -0.000000 103.729216
LeftHand 0.727250 -0.000000 12.923683
LeftHandThumb1 -26.253704 0.000000 33.147579
RightShoulder -5.157351 -6.833138 -2.934537
RightArm 4.744369 -20.141008 74.244411
RightForeArm -18.654468 -0.000000 24.456461
RightHand -0.524537 0.000000 -3.288303
RightHandThumb1 -24.326973 -0.000000 -32.862282
LeftUpLeg 7.523210 8.512227 2.317503
LeftLeg 1.487361 -0.000000 -0.000000
LeftFoot -18.238767 27.680045 -10.049928
LeftToeBase 16.375917 -0.000000 -0.000000
RightUpLeg 7.833122 -3.961421 6.215293
RightLeg -0.726791 -0.000000 0.000000
RightFoot -4.197477 -27.454981 2.126864
RightToeBase 11.552644 -0.000000 -0.000000
297
root -7.082515 35.562018 -12.671687 -5.991170 -4.096835 -3.927534
Spine 11.168184 -2.196924 6.578110
Head 17.423909 8.563742 -6.506603
LeftShoulder -24.691265 15.177970 -9.105426
LeftArm 29.765504 -50.299288 -75.316219
LeftForeArm -12.872537 -0.000000 104.125391
LeftHand 0.600726 -0.000000 12.350985
LeftHandThumb1 -26.253704 0.000000 33.147579
RightShoulder -5.174090 -6.902336 -2.829884
RightArm 4.888437 -20.203261 74.148635
RightForeArm -18.609875 -0.000000 24.594031
RightHand -0.507404 -0.000000 -3.417008
RightHandThumb1 -24.326973 -0.000000 -32.862282
LeftUpLeg 7.823550 8.670473 2.492589
LeftLeg 1.018059 -0.000000 -0.000000
LeftFoot -18.336277 27.771326 -10.045207
LeftToeBase 17.544212 -0.000000 -0.000000
RightUpLeg 7.909990 -3.824269 6.351067
RightLeg -0.655270 -0.000000 0.000000
RightFoot -4.261053 -27.527522 2.255917
RightToeBase 11.515903 -0.000000 -0.000000
298
root -7.028637 35.545768 -12.652625 -6.063888 -4.129681 -4.130347
Spine 11.235939 -2.301003 6.776682
Head 17.228452 8.519372 -6.434896
LeftShoulder -24.713646 15.186845 -9.103100
LeftArm 29.603756 -50.085422 -75.273087
LeftForeArm -13.188214 -0.000000 104.461612
LeftHand 0.605549 0.000000 11.652018
LeftHandThumb1 -26.253704 0.000000 33.147579
RightShoulder -5.162953 -6.743275 -2.738445
RightArm 4.806001 -20.318700 74.103444
RightForeArm -18.721433 -0.000000 24.707856
RightHand -0.626699 -0.000000 -3.772588
RightHandThumb1 -24.326973 -0.000000 -32.862282
LeftUpLeg 8.115854 8.850566 2.650955
LeftLeg 0.591403 -0.000000 -0.000000
LeftFoot -18.238021 27.874233 -9.967851
LeftToeBase 18.527462 -0.000000 -0.000000
RightUpLeg 7.970012 -3.754526 6.462337
RightLeg -0.553429 -0.000000 0.000000
RightFoot -4.325731 -27.542002 2.312682
RightToeBase 11.579674 -0.000000 -0.000000
299
root -6.971297 35.528932 -12.635880 -6.106921 -4.148511 -4.335877
Spine 11.282401 -2.386679 6.984725
Head 17.011024 8.435788 -6.393366
LeftShoulder -24.736234 15.228493 -9.103229
LeftArm 29.509724 -49.799160 -75.337025
LeftForeArm -13.419476 -0.000000 104.841963
LeftHand 0.436680 0.000000 11.310887
LeftHandThumb1 -26.253704 0.000000 33.147579
RightShoulder -5.241637 -6.767241 -2.595720
RightArm 4.922107 -20.373233 73.958284
RightForeArm -18.721007 -0.000000 24.871428
RightHand -0.639554 -0.000000 -3.541222
RightHandThumb1 -24.326973 -0.000000 -32.862282
LeftUpLeg 8.357757 8.960725 2.799543
LeftLeg 0.236135 -0.000000 -0.000000
LeftFoot -18.283392 27.963121 -9.972892
LeftToeBase 19.581732 -0.000000 -0.000000
RightUpLeg 7.986873 -3.704407 6.578000
RightLeg -0.438711 -0.000000 0.000000
RightFoot -4.372890 -27.601551 2.282680
RightToeBase 11.700654 -0.000000 -0.000000
300
root -6.909277 35.516048 -12.614512 -6.193850 -4.221539 -4.499700
Spine 11.369848 -2.450902 7.139200
Head 16.840252 8.398124 -6.305246
LeftShoulder -24.755157 15.300141 -9.119723
LeftArm 29.469528 -49.608332 -75.437031
LeftForeArm -13.770633 -0.000000 105.193655
LeftHand 0.542417 -0.000000 10.593058
LeftHandThumb1 -26.253704 0.000000 33.147579
RightShoulder -5.275543 -6.760344 -2.427732
RightArm 5.020623 -20.484129 73.795603
RightForeArm -18.729033 -0.000000 24.959186
RightHand -0.579826 -0.000000 -3.953920
RightHandThumb1 -24.326973 -0.000000 -32.862282
LeftUpLeg 8.646398 9.165322 2.919171
LeftLeg -0.046755 -0.000000 0.000000
LeftFoot -18.228904 27.972628 -9.828084
LeftToeBase 20.534780 -0.000000 -0.000000
RightUpLeg 8.104212 -3.450713 6.652270
RightLeg -0.419123 -0.000000 0.000000
RightFoot -4.417170 -27.697750 2.439533
RightToeBase 11.663077 -0.000000 -0.000000
301
root -6.844041 35.505506 -12.597967 -6.259221 -4.240892 -4.625559
Spine 11.429362 -2.518126 7.218451
Head 16.690176 8.301789 -6.145305
LeftShoulder -24.754292 15.370164 -9.092259
LeftArm 29.478588 -49.387218 -75.560727
LeftForeArm -14.045749 0.000000 105.491195
LeftHand 0.905434 -0.000000 9.935600
LeftHandThumb1 -26.253704 0.000000 33.147579
RightShoulder -5.325893 -6.729296 -2.201193
RightArm 5.058042 -20.358294 73.648784
RightForeArm -18.835902 -0.000000 25.093030
RightHand -0.578822 -0.000000 -3.555033
RightHandThumb1 -24.326973 -0.000000 -32.862282
LeftUpLeg 8.851978 9.299370 2.978965
LeftLeg -0.237728 -0.000000 0.000000
LeftFoot -18.210867 27.862422 -9.712018
LeftToeBase 21.270075 -0.000000 -0.000000
RightUpLeg 8.176731 -3.217787 6.698359
RightLeg -0.379862 -0.000000 0.000000
RightFoot -4.460169 -27.889900 2.541366
RightToeBase 11.727105 -0.000000 -0.000000
302
root -6.776444 35.498613 -12.582638 -6.302380 -4.254408 -4.716552
Spine 11.465196 -2.569771 7.236152
Head 16.555703 8.161942 -5.958353
LeftShoulder -24.757335 15.488425 -9.083151
LeftArm 29.582686 -49.135056 -75.782198
LeftForeArm -13.867646 0.000000 106.009445
LeftHand 0.737220 0.000000 9.583756
LeftHandThumb1 -26.253704 0.000000 33.147579
RightShoulder -5.412612 -6.717886 -1.915006
RightArm 5.162431 -20.399021 73.432790
RightForeArm -18.867322 -0.000000 25.181403
RightHand -0.635155 -0.000000 -3.636119
RightHandThumb1 -24.326973 -0.000000 -32.862282
LeftUpLeg 9.032216 9.469968 2.996793
LeftLeg -0.463480 -0.000000 0.000000
LeftFoot -18.107498 27.770774 -9.538438
LeftToeBase 21.671745 -0.000000 -0.000000
RightUpLeg 8.216094 -3.033479 6.701905
RightLeg -0.326016 -0.000000 0.000000
RightFoot -4.499472 -28.034215 2.606175
RightToeBase 11.811633 -0.000000 -0.000000
